<svg width="20" height="20" viewBox="0 0 20 20" fill="none" xmlns="http://www.w3.org/2000/svg">
<g clip-path="url(#clip0_155_299)">
<path d="M4.72062e-05 10.0058C-0.0167501 4.50752 4.45132 0.0394467 9.92163 0.000253067C15.4871 -0.0389405 20.0056 4.47952 20 10.0058C20 15.5097 15.5207 19.9946 10.0168 20.0058C4.48492 20.017 -0.0167501 15.5209 4.72062e-05 10.0058ZM9.47371 7.97895C9.47371 7.97895 9.47371 7.97335 9.47371 7.96776C9.02018 7.96776 8.56665 7.96776 8.10753 7.96776C7.98435 7.96776 7.85557 7.96776 7.73799 7.98455C7.52522 8.01255 7.39084 8.15252 7.38525 8.3317C7.37965 8.48847 7.51403 8.65644 7.70999 8.69564C7.87237 8.72923 8.04034 8.75723 8.20271 8.77402C8.49387 8.80762 8.65064 8.9196 8.68983 9.16036C8.70663 9.26674 8.70663 9.37873 8.68983 9.47951C8.60585 10.0002 8.50506 10.5265 8.41548 11.0473C8.32589 11.5736 8.23631 12.0999 8.14672 12.6262C8.07953 13.0293 8.02354 13.4381 7.95075 13.8412C7.79958 14.6923 8.2979 15.5041 9.13776 15.7001C9.5017 15.7841 9.88804 15.7785 10.2632 15.7897C11.0918 15.8065 11.7861 15.4817 12.3572 14.8882C12.4468 14.793 12.5196 14.6643 12.57 14.5411C12.654 14.3171 12.5028 14.1491 12.2733 14.1995C12.1445 14.2275 12.0269 14.2947 11.9093 14.3563C11.6853 14.4739 11.4502 14.5691 11.1926 14.5915C10.9743 14.6083 10.8287 14.5243 10.7671 14.3171C10.7167 14.1491 10.6775 13.9588 10.7055 13.7908C10.8063 13.1245 10.9295 12.4694 11.047 11.8087C11.1758 11.1032 11.3046 10.3978 11.4334 9.68668C11.5062 9.28354 11.6014 8.88041 11.5902 8.46607C11.579 8.17492 11.4222 7.98455 11.1254 7.97895C10.5767 7.96776 10.028 7.97895 9.47931 7.97895H9.47371ZM10.3976 4.19397C9.64168 4.16038 8.85221 4.79867 8.85221 5.71132C8.85221 6.57918 9.5409 7.27907 10.4032 7.28467C11.2262 7.28467 11.9149 6.59038 11.9261 5.74492C11.9373 4.84346 11.1702 4.15478 10.4032 4.19397H10.3976Z" fill="#207FBF"/>
</g>
<defs>
<clipPath id="clip0_155_299">
<rect width="20" height="20" fill="white"/>
</clipPath>
</defs>
</svg>
