<svg width="31" height="31" viewBox="0 0 31 31" fill="none" xmlns="http://www.w3.org/2000/svg">
<g clip-path="url(#clip0_203_1010)">
<path d="M10.5655 24.1341L9.88583 23.4905L3.87548 17.7955L3.56749 17.5045L3.87563 17.2125L9.86557 11.54L10.5411 10.8989L10.543 11.8303L10.5496 14.9661L12.5004 14.9684L12.5015 15.7722L10.1483 15.7687L9.7472 15.768L9.7471 15.368L9.74292 12.7623L4.73523 17.5042L9.75854 22.2635L9.75398 19.6638L9.75404 19.2606L10.1565 19.2619L17.8826 19.2727L17.8798 17.7656L18.6835 17.7675L18.687 19.6736L18.6869 20.0766L18.2845 20.0753L10.5583 20.0645L10.5645 23.1986L10.5655 24.1341ZM13.3056 16.9604L13.3018 12.0308L21.0007 12.0352L21.402 12.0357L21.4013 11.6338L21.3999 7.84976L28.4144 14.5044L21.4083 21.1502L21.4056 17.3654L21.4056 16.9653L21.0044 16.9647L13.3056 16.9604L13.3056 16.9604Z" fill="black"/>
</g>
<defs>
<clipPath id="clip0_203_1010">
<rect width="22" height="22" fill="white" transform="matrix(0.866025 0.5 0.5 -0.866025 0.950928 20.0034)"/>
</clipPath>
</defs>
</svg>
