<svg width="41" height="41" viewBox="0 0 41 41" fill="none" xmlns="http://www.w3.org/2000/svg">
<path d="M6.83366 6.83341H11.9587L15.3753 3.41675H25.6253L29.042 6.83341H34.167C35.0731 6.83341 35.9422 7.19338 36.5829 7.83413C37.2237 8.47488 37.5837 9.34392 37.5837 10.2501V30.7501C37.5837 31.6562 37.2237 32.5253 36.5829 33.166C35.9422 33.8068 35.0731 34.1667 34.167 34.1667H6.83366C5.9275 34.1667 5.05846 33.8068 4.41771 33.166C3.77696 32.5253 3.41699 31.6562 3.41699 30.7501V10.2501C3.41699 9.34392 3.77696 8.47488 4.41771 7.83413C5.05846 7.19338 5.9275 6.83341 6.83366 6.83341ZM20.5003 11.9584C18.2349 11.9584 16.0623 12.8583 14.4605 14.4602C12.8586 16.0621 11.9587 18.2347 11.9587 20.5001C11.9587 22.7655 12.8586 24.9381 14.4605 26.54C16.0623 28.1418 18.2349 29.0417 20.5003 29.0417C22.7657 29.0417 24.9383 28.1418 26.5402 26.54C28.1421 24.9381 29.042 22.7655 29.042 20.5001C29.042 18.2347 28.1421 16.0621 26.5402 14.4602C24.9383 12.8583 22.7657 11.9584 20.5003 11.9584ZM20.5003 15.3751C21.8596 15.3751 23.1631 15.915 24.1242 16.8762C25.0854 17.8373 25.6253 19.1408 25.6253 20.5001C25.6253 21.8593 25.0854 23.1629 24.1242 24.124C23.1631 25.0851 21.8596 25.6251 20.5003 25.6251C19.1411 25.6251 17.8375 25.0851 16.8764 24.124C15.9153 23.1629 15.3753 21.8593 15.3753 20.5001C15.3753 19.1408 15.9153 17.8373 16.8764 16.8762C17.8375 15.915 19.1411 15.3751 20.5003 15.3751Z" fill="white"/>
</svg>
