<svg width="45" height="45" viewBox="0 0 45 45" fill="none" xmlns="http://www.w3.org/2000/svg">
<path d="M22.5 0C10.0736 0 0 10.0736 0 22.5C0 34.9264 10.0736 45 22.5 45C34.9264 45 45 34.9264 45 22.5C45 10.0736 34.9264 0 22.5 0ZM11.1594 9.50591L15.1639 10.7639C15.694 10.938 16.0471 11.4303 16.1087 11.9339L16.3339 14.1393L34.4669 16.1636C35.2455 16.3144 35.7926 17.0174 35.6836 17.7401L34.5575 24.0846C34.4142 24.7483 33.8645 25.2032 33.2529 25.2107H17.1442L16.8283 27.0098H32.1268C32.9267 27.0379 33.5127 27.6471 33.522 28.3583C33.4889 29.1698 32.8349 29.7009 32.1268 29.7096H15.2078C14.3545 29.6391 13.728 28.9628 13.8593 28.1358L14.5788 24.1753L13.4528 13.1039L10.3491 12.1152C9.9891 11.9952 9.71887 11.7695 9.53888 11.4395C9.1983 10.7258 9.51641 9.93559 10.1239 9.59378C10.4706 9.41355 10.8093 9.39109 11.1594 9.50591ZM17.2568 30.4871C18.4218 30.4871 19.3662 31.4314 19.3662 32.5964C19.3662 33.7614 18.4218 34.7058 17.2568 34.7058C16.0919 34.7058 15.1474 33.7614 15.1474 32.5964C15.1474 31.4314 16.0918 30.4871 17.2568 30.4871ZM29.6384 30.4871C30.8033 30.4871 31.7477 31.4314 31.7477 32.5964C31.7477 33.7614 30.8033 34.7058 29.6384 34.7058C28.4734 34.7058 27.529 33.7614 27.529 32.5964C27.529 31.4314 28.4734 30.4871 29.6384 30.4871Z" fill="#9B9B9A"/>
</svg>
