<svg width="35" height="34" viewBox="0 0 35 34" fill="none" xmlns="http://www.w3.org/2000/svg">
<g clip-path="url(#clip0_155_12)">
<path d="M10.5267 20.74V10.2H4.06675C2.19675 10.2 0.666748 11.73 0.666748 13.6V23.8C0.666748 25.67 2.19675 27.2 4.06675 27.2H5.76675V32.3L10.8667 27.2H19.3667C21.2367 27.2 22.7667 25.67 22.7667 23.8V20.706C22.655 20.73 22.541 20.742 22.4267 20.7417H10.5267V20.74ZM31.2667 1.70001H15.9667C14.0967 1.70001 12.5667 3.23001 12.5667 5.10001V18.7H24.4667L29.5667 23.8V18.7H31.2667C33.1367 18.7 34.6667 17.1717 34.6667 15.3V5.10001C34.6667 3.23001 33.1367 1.70001 31.2667 1.70001Z" fill="white"/>
<circle cx="4.5" cy="3.5" r="2.5" fill="#E30016"/>
</g>
<defs>
<clipPath id="clip0_155_12">
<rect width="34" height="34" fill="white" transform="translate(0.666748)"/>
</clipPath>
</defs>
</svg>
