<svg width="22" height="23" viewBox="0 0 22 23" fill="none" xmlns="http://www.w3.org/2000/svg">
<path d="M10.9692 0.5625C8.80601 0.5625 6.69136 1.20397 4.89269 2.4058C3.09403 3.60763 1.69214 5.31583 0.864311 7.3144C0.0364773 9.31297 -0.180122 11.5121 0.241904 13.6338C0.66393 15.7555 1.70563 17.7043 3.23526 19.234C4.7649 20.7636 6.71378 21.8053 8.83544 22.2273C10.9571 22.6494 13.1563 22.4328 15.1548 21.6049C17.1534 20.7771 18.8616 19.3752 20.0634 17.5765C21.2653 15.7779 21.9067 13.6632 21.9067 11.5C21.9067 8.59919 20.7544 5.8172 18.7032 3.76602C16.652 1.71484 13.87 0.5625 10.9692 0.5625ZM9.40674 15.8672L5.50049 11.9609L6.74268 10.7188L9.40674 13.3828L15.1958 7.59375L16.4427 8.83281L9.40674 15.8672Z" fill="#42AC41"/>
</svg>
