<svg width="24" height="24" viewBox="0 0 24 24" fill="none" xmlns="http://www.w3.org/2000/svg">
<path d="M15.75 19.13C14.92 19.13 14.25 18.29 14.25 17.25C14.25 16.22 14.92 15.38 15.75 15.38C16.58 15.38 17.25 16.22 17.25 17.25C17.25 18.29 16.58 19.13 15.75 19.13ZM12 11.25C10.76 11.25 9.75001 10.41 9.75001 9.38C9.75001 8.34 10.76 7.5 12 7.5C13.24 7.5 14.25 8.34 14.25 9.38C14.25 10.41 13.24 11.25 12 11.25ZM8.25001 19.13C7.42001 19.13 6.75001 18.29 6.75001 17.25C6.75001 16.22 7.42001 15.38 8.25001 15.38C9.08001 15.38 9.75001 16.22 9.75001 17.25C9.75001 18.29 9.08001 19.13 8.25001 19.13ZM12 8.25C12.41 8.25 12.75 8.59 12.75 9C12.75 9.41 12.41 9.75 12 9.75C11.59 9.75 11.25 9.41 11.25 9C11.25 8.59 11.59 8.25 12 8.25ZM18.75 12C18.43 12 18.12 12.07 17.84 12.2C17.36 11.59 16.71 11.07 15.93 10.67C16.5 9.87 16.84 8.9 16.84 7.85V7.79C17.93 7.56 18.75 6.59 18.75 5.42C18.75 4.09 17.66 3 16.33 3C15.64 3 15 3.29 14.58 3.75C13.8086 3.26019 12.9138 3.00007 12 3.00007C11.0863 3.00007 10.1914 3.26019 9.42001 3.75C9.00001 3.29 8.36001 3 7.67001 3C6.34001 3 5.25001 4.09 5.25001 5.42C5.25001 6.58 6.07001 7.55 7.15001 7.79V7.85C7.15001 8.9 7.50001 9.88 8.06001 10.67C7.29001 11.07 6.64001 11.59 6.16001 12.2C5.81828 12.0461 5.44338 11.9803 5.06965 12.0088C4.69593 12.0373 4.33534 12.1592 4.0209 12.3631C3.70646 12.5671 3.44824 12.8468 3.26988 13.1764C3.09152 13.5061 2.99873 13.8752 3.00001 14.25C3.00001 15.5 4.00001 16.5 5.25001 16.5H5.31001C5.27001 16.74 5.25001 17 5.25001 17.25C5.25001 19.32 6.59001 21 8.25001 21C9.26001 21 10.15 20.37 10.7 19.41C11.12 19.47 11.55 19.5 12 19.5C12.45 19.5 12.88 19.47 13.3 19.41C13.85 20.37 14.74 21 15.75 21C17.41 21 18.75 19.32 18.75 17.25C18.75 17 18.73 16.74 18.69 16.5H18.75C20 16.5 21 15.5 21 14.25C21 13 20 12 18.75 12Z" fill="#207FBF"/>
</svg>
