<svg width="18" height="18" viewBox="0 0 18 18" fill="none" xmlns="http://www.w3.org/2000/svg">
<path d="M3.55 14.15L0.35 12.4L1.4 11.35L3.9 11.7L7.8 7.80005L0 3.55005L1.4 2.15005L10.95 4.60005L14.875 0.725049C15.1583 0.441715 15.5127 0.300049 15.938 0.300049C16.3633 0.300049 16.7173 0.441715 17 0.725049C17.2833 1.00838 17.425 1.36272 17.425 1.78805C17.425 2.21338 17.2833 2.56738 17 2.85005L13.1 6.75005L15.55 16.3L14.15 17.7001L9.9 9.90005L6 13.8L6.35 16.3L5.3 17.35L3.55 14.15Z" fill="black"/>
</svg>
