<svg width="29" height="29" viewBox="0 0 29 29" fill="none" xmlns="http://www.w3.org/2000/svg">
<path d="M8.5746 20.4195L4.90172 18.408L6.10689 17.2011L8.97633 17.6034L13.4527 13.1207L4.5 8.23563L6.10689 6.62644L17.0681 9.44253L21.5732 4.98851C21.8984 4.66284 22.3051 4.5 22.7933 4.5C23.2814 4.5 23.6878 4.66284 24.0122 4.98851C24.3374 5.31418 24.5 5.72146 24.5 6.21034C24.5 6.69923 24.3374 7.10613 24.0122 7.43103L19.5359 11.9138L22.3479 22.8908L20.741 24.5L15.863 15.5345L11.3867 20.0172L11.7884 22.8908L10.5832 24.0977L8.5746 20.4195Z" fill="black"/>
<path d="M8.5746 20.4195L4.90172 18.408L6.10689 17.2011L8.97633 17.6034L13.4527 13.1207L4.5 8.23563L6.10689 6.62644L17.0681 9.44253L21.5732 4.98851C21.8984 4.66284 22.3051 4.5 22.7933 4.5C23.2814 4.5 23.6878 4.66284 24.0122 4.98851C24.3374 5.31418 24.5 5.72146 24.5 6.21034C24.5 6.69923 24.3374 7.10613 24.0122 7.43103L19.5359 11.9138L22.3479 22.8908L20.741 24.5L15.863 15.5345L11.3867 20.0172L11.7884 22.8908L10.5832 24.0977L8.5746 20.4195Z" fill="#207FBF"/>
</svg>
