<svg width="16" height="16" viewBox="0 0 16 16" fill="none" xmlns="http://www.w3.org/2000/svg">
<g clip-path="url(#clip0_203_988)">
<path d="M16 1C16 0.446875 15.5531 0 15 0H1C0.446875 0 0 0.446875 0 1C0 1.55313 0.446875 2 1 2V14C0.446875 14 0 14.4469 0 15C0 15.5531 0.446875 16 1 16H6.5V14.5C6.5 13.6719 7.17188 13 8 13C8.82812 13 9.5 13.6719 9.5 14.5V16H15C15.5531 16 16 15.5531 16 15C16 14.4469 15.5531 14 15 14V2C15.5531 2 16 1.55313 16 1ZM13 3.5V4.5C13 4.775 12.775 5 12.5 5H11.5C11.225 5 11 4.775 11 4.5V3.5C11 3.225 11.225 3 11.5 3H12.5C12.775 3 13 3.225 13 3.5ZM8.5 3C8.775 3 9 3.225 9 3.5V4.5C9 4.775 8.775 5 8.5 5H7.5C7.225 5 7 4.775 7 4.5V3.5C7 3.225 7.225 3 7.5 3H8.5ZM5 3.5V4.5C5 4.775 4.775 5 4.5 5H3.5C3.225 5 3 4.775 3 4.5V3.5C3 3.225 3.225 3 3.5 3H4.5C4.775 3 5 3.225 5 3.5ZM12.5 6C12.775 6 13 6.225 13 6.5V7.5C13 7.775 12.775 8 12.5 8H11.5C11.225 8 11 7.775 11 7.5V6.5C11 6.225 11.225 6 11.5 6H12.5ZM9 6.5V7.5C9 7.775 8.775 8 8.5 8H7.5C7.225 8 7 7.775 7 7.5V6.5C7 6.225 7.225 6 7.5 6H8.5C8.775 6 9 6.225 9 6.5ZM4.5 6C4.775 6 5 6.225 5 6.5V7.5C5 7.775 4.775 8 4.5 8H3.5C3.225 8 3 7.775 3 7.5V6.5C3 6.225 3.225 6 3.5 6H4.5ZM5.75 12C5.33438 12 4.99063 11.6594 5.09375 11.2563C5.425 9.95938 6.6 9 8 9C9.4 9 10.5781 9.95938 10.9062 11.2563C11.0094 11.6562 10.6625 12 10.25 12H5.75Z" fill="white"/>
</g>
<defs>
<clipPath id="clip0_203_988">
<rect width="16" height="16" fill="white" transform="matrix(-1 0 0 1 16 0)"/>
</clipPath>
</defs>
</svg>
