<svg width="159" height="67" viewBox="0 0 159 67" fill="none" xmlns="http://www.w3.org/2000/svg">
<path d="M53.3247 31.5867C52.0948 31.6644 50.8505 31.7636 49.6003 31.8011C49.3881 31.8065 49.0916 31.584 48.9636 31.3911C48.8008 31.1499 48.7717 30.8337 48.6467 30.4263C48.4461 30.6407 48.3153 30.7854 48.1786 30.9275C47.4053 31.7261 46.6901 32.5836 45.8382 33.3045C44.5968 34.3497 43.3699 35.3787 42.8233 36.9062C42.6082 37.5092 42.1662 37.7156 41.4859 37.6914C40.1485 37.6486 38.8897 36.9116 38.4128 35.7619C37.7761 34.2264 37.6366 32.6211 37.7267 30.9918C37.8663 28.4647 38.6222 26.0608 39.3984 23.657C39.5147 23.2979 39.6136 22.9334 39.7706 22.3948C38.3867 22.0437 37.0406 21.7007 35.6276 21.3416C35.2991 22.5234 35.0374 23.5659 34.7147 24.5923C32.9819 30.1021 29.8914 34.7972 24.8966 38.3185C22.9545 39.6906 20.7972 40.5991 18.2794 40.5911C15.1831 40.583 12.8485 38.9456 12.0228 36.1961C11.3832 34.0736 11.4908 31.9217 11.7553 29.7751C12.4822 23.9169 14.4301 18.3669 16.7938 12.9215C16.8694 12.7499 16.9333 12.5731 17.0729 12.214C15.593 12.5704 14.244 12.8571 12.9241 13.227C9.6097 14.1488 6.42906 15.3601 3.46355 17.027C3.14375 17.2066 2.78033 17.3352 2.41982 17.4397C1.53307 17.697 1.06208 17.504 0.640515 16.7295C0.445722 16.3704 0.192783 16.0167 0.105562 15.6308C-0.231691 14.1488 0.221856 13.3342 1.71624 12.7097C5.66442 11.0643 9.68238 9.57699 13.9446 8.79447C17.9247 8.06286 21.9194 7.32858 25.9984 7.28302C28.3301 7.25623 30.6648 7.3795 32.9964 7.42238C34.6129 7.45186 35.427 9.40012 34.5199 10.8017C34.1012 11.4475 33.357 11.5306 32.5865 11.5306C29.3739 11.536 26.1584 11.5708 22.9457 11.5708C22.3236 11.5708 21.9921 11.7879 21.777 12.3185C19.4511 18.0534 17.2211 23.8178 16.4303 29.9359C16.2152 31.6028 16.4449 33.3179 16.4972 35.0116C16.5059 35.2983 16.631 35.5904 16.7414 35.8665C17.3723 37.4663 18.6167 38.072 20.4018 37.6271C22.3265 37.1474 23.8615 36.054 25.2658 34.8293C29.2954 31.3107 31.7754 26.9907 32.854 21.9794C33.0633 21.0039 32.9412 20.8592 31.8975 20.6663C31.8102 20.6502 31.723 20.6448 31.6387 20.6261C30.3101 20.3313 29.746 19.6667 29.9728 18.6644C30.2752 17.3352 31.1735 16.7403 32.5196 16.9654C32.6592 16.9895 32.8075 16.9841 32.9994 16.9975C33.2116 16.5554 33.4151 16.1159 33.6332 15.6817C33.9442 15.06 34.5083 14.934 35.1741 15.0546C35.8515 15.1752 36.1829 15.5986 36.1713 16.2043C36.1596 16.9493 36.0782 17.6943 36.0172 18.5706C37.5901 18.8574 39.1251 19.1441 40.669 19.4148C41.2417 19.5139 41.829 19.5488 42.4017 19.6452C43.6955 19.8623 44.1665 20.4385 43.9223 21.623C43.6141 23.1317 43.2652 24.6325 42.8814 26.1252C42.3523 28.1806 42.0325 30.2521 42.1488 32.3692C42.1575 32.5515 42.1837 32.7364 42.3727 33.0285C43.0559 32.3183 43.7798 31.6403 44.4107 30.8926C45.5068 29.5983 46.6203 28.3039 47.5855 26.9264C48.2455 25.9858 48.7078 24.9192 49.1875 23.8821C50.6063 20.8003 52.6269 18.2062 55.8482 16.4991C58.3108 15.194 60.9361 14.8054 63.7097 15.1618C64.3726 15.2476 64.9424 15.2476 65.521 14.851C66.1868 14.3927 66.9572 14.2453 67.748 14.6312C68.5766 15.0359 68.8557 15.7326 68.8034 16.5312C68.7714 17.0618 68.5883 17.5817 68.4778 18.1097C67.8498 21.1781 67.1956 24.2412 66.6171 27.315C66.463 28.1297 66.5124 28.9819 66.5269 29.8153C66.5415 30.4906 66.9078 30.8256 67.6376 30.772C68.1405 30.7345 68.6871 30.6059 69.1174 30.3701C70.5187 29.6009 71.6323 28.5156 72.5481 27.2909C72.8097 26.9425 72.897 26.369 72.8185 25.9376C72.1905 22.5154 71.4898 19.1066 70.8473 15.6871C70.6525 14.6527 70.667 13.5941 71.702 12.8866C72.1236 12.5972 72.6818 12.3801 73.2022 12.3292C74.3158 12.2247 74.9176 12.6856 75.0949 13.7013C75.2635 14.658 75.3479 15.6254 75.4816 16.5875C75.9671 20.1169 76.5079 23.6329 77.7755 27.0149C78.1011 27.8885 78.5256 28.7059 79.4996 29.3758C81.5812 27.8403 82.7151 25.6883 84.0089 23.6168C83.8926 23.4855 83.817 23.3703 83.7152 23.2845C81.3225 21.296 80.2904 18.7287 79.9153 15.8559C79.6973 14.1917 79.7874 12.5731 80.4851 11.0161C80.6712 10.598 80.9242 10.188 81.2265 9.83426C82.9651 7.80828 86.0353 7.97979 87.5064 10.18C88.2274 11.2599 88.5385 12.4552 88.6432 13.7093C88.8583 16.2847 88.3234 18.7502 87.3639 21.154C87.2447 21.4515 87.1372 21.7543 86.9802 22.1724C88.3815 22.5181 89.6637 22.4671 90.8382 22.1429C91.0854 20.6609 91.2336 19.2942 91.5534 17.965C92.0797 15.7862 93.2223 13.8862 94.9754 12.3319C96.621 10.8714 98.6445 10.2309 100.889 10.2604C104.261 10.3032 106.09 12.6267 105.23 15.6442C104.741 17.362 103.636 18.6858 102.194 19.798C100.59 21.0334 98.8364 22.0571 96.8972 22.7726C96.1849 23.0353 96.022 23.4158 96.211 24.0081C96.4233 24.678 96.6151 25.3641 96.9291 25.9938C97.8508 27.8456 98.9846 28.2342 101.037 27.3927C103.288 26.4709 105.244 25.139 106.8 23.3836C107.887 22.159 108.817 20.811 109.797 19.5086C109.919 19.3451 109.974 19.1119 109.98 18.9083C110.105 13.9478 111.257 9.12945 112.338 4.30302C112.582 3.22035 112.876 2.14841 113.071 1.06038C113.193 0.382375 113.577 0.0286325 114.274 0.00719358C114.873 -0.0115655 115.495 -0.000846006 116.074 0.127787C116.754 0.28054 117.17 0.781674 117.211 1.42484C117.249 2.03585 117.254 2.67634 117.109 3.26859C115.943 8.00123 115.033 12.7767 114.501 17.6032C114.26 19.7926 114.144 22.025 114.821 24.193C115.324 25.8089 115.966 26.0126 117.438 24.9835C119.56 23.5016 121.011 21.5077 122.206 19.3585C122.761 18.3589 123.153 17.2816 123.581 16.2284C123.808 15.671 124.136 15.2744 124.822 15.2637C125.497 15.2529 126.221 15.7246 126.238 16.3517C126.259 17.0886 126.18 17.8685 125.921 18.5599C124.982 21.0736 123.328 23.1907 121.383 25.1256C120.246 26.2565 119.04 27.307 117.525 28.0171C114.934 29.2365 112.568 28.5772 111.248 26.2002C110.864 25.5088 110.62 24.7531 110.32 24.0241C110.239 23.8258 110.187 23.6141 110.07 23.255C109.736 23.5846 109.463 23.8339 109.21 24.1019C107.669 25.7259 106.113 27.3231 104.096 28.4915C101.831 29.8019 99.4992 30.6997 96.7373 30.2548C94.1555 29.8394 92.539 28.4968 91.8529 26.1841C91.6988 25.6669 91.5825 25.1416 91.4226 24.5226C89.6869 24.9165 87.9338 25.1068 86.1254 24.5333C85.5963 25.3962 85.102 26.2404 84.57 27.0658C83.4448 28.8077 82.2441 30.4987 80.5724 31.8493C78.8483 33.2402 77.0748 33.1571 75.6008 31.5358C74.9321 30.8015 74.4408 29.9306 73.8273 29.065C73.4784 29.4348 73.0947 29.8502 72.7022 30.2575C71.1002 31.9163 69.225 33.2268 66.934 33.9611C64.8029 34.6444 63.0265 33.7628 62.6195 31.71C62.3927 30.5603 62.4247 29.3517 62.4538 28.1752C62.4712 27.4302 62.7038 26.6906 62.855 25.8572C62.0147 27.181 61.2327 28.4459 60.4128 29.692C59.8546 30.5442 59.2702 31.3857 58.6567 32.2058C58.0026 33.0794 57.7671 33.1357 56.671 32.7417C56.0314 32.5113 55.4092 32.2379 54.7783 31.9833L54.6213 31.7046C54.9499 31.4902 55.3133 31.308 55.6011 31.0534C58.2904 28.6844 60.0523 25.7312 61.6629 22.6976C62.3811 21.347 63.0236 19.9534 63.5876 18.5411C64.1138 17.22 63.9045 17.0297 62.413 17.0458C59.8546 17.0699 57.9706 18.2758 56.453 20.0151C54.3132 22.4645 53.313 25.356 53.0165 28.4406C52.9176 29.4562 53.2084 30.504 53.3247 31.584V31.5867ZM95.8069 20.8458C98.6416 19.8087 101.014 18.5787 102.055 15.939C102.296 15.3226 102.418 14.6285 102.41 13.972C102.386 12.4846 101.342 11.9165 99.8627 12.5302C98.8567 12.9456 97.9816 13.5485 97.4321 14.4356C96.243 16.3517 95.929 18.4661 95.8098 20.8458H95.8069ZM85.1311 12.348C83.4536 13.645 83.8344 19.4362 85.5759 21.0066C86.5819 18.375 86.7505 15.7594 85.7387 13.1251C85.6341 12.8518 85.3579 12.632 85.1311 12.348Z" fill="#207FBF"/>
<path d="M93.8792 55.7217C93.0622 55.7217 92.3354 55.7485 91.6144 55.7136C90.8439 55.6761 90.1345 55.1669 90.0269 54.3228C89.899 53.3259 89.9252 52.2888 90.056 51.2865C90.2828 49.5392 90.6404 47.8027 90.8265 46.0179C90.306 46.5512 89.7885 47.0898 89.2652 47.6204C87.8464 49.0622 86.1107 50.0189 84.0349 50.3887C83.4912 50.4852 83.3342 50.8068 83.1481 51.1686C82.3021 52.806 81.3776 54.4032 79.9093 55.6493C77.1038 58.0317 73.8679 58.9858 70.1348 57.9084C68.8294 57.5333 67.5618 57.0107 66.7507 55.8798C66.5239 55.5662 66.2593 55.2741 65.9104 54.848C65.4482 55.4349 65.1342 55.8047 64.8551 56.196C62.4827 59.5458 59.491 62.3141 55.7056 64.2946C52.1325 66.1624 48.2832 66.8753 44.2071 66.2428C39.4942 65.5139 36.4124 62.8421 34.4965 58.9643C32.4323 54.7891 32.4352 50.445 33.6417 46.0715C34.4849 43.0138 35.8949 40.1838 37.8719 37.6004C38.0347 37.386 38.215 37.1824 38.436 36.9171C38.6627 37.1127 38.8401 37.244 38.9855 37.3968C39.7355 38.1873 40.7502 38.4419 41.8172 38.4901C42.4917 38.5223 42.9627 38.2543 43.268 37.579C44.1227 35.6843 45.2799 33.9933 47.4197 33.0715C50.7108 31.6511 53.8391 31.9459 56.7872 33.8325C58.3455 34.8321 59.0549 36.3489 59.2991 38.0319C59.5811 39.9694 59.1596 41.773 57.9298 43.4104C57.0459 44.5868 55.7987 44.8816 54.3973 44.7369C53.1501 44.611 52.4232 43.3595 52.9378 42.2956C53.1588 41.84 53.4757 41.3764 53.8769 41.0494C55.1038 40.0471 55.2724 38.8921 54.7026 37.5415C54.1589 36.2551 53.0919 35.6656 51.679 35.5477C48.2686 35.2663 45.5735 36.6357 43.3901 38.8707C38.9942 43.3729 37.2149 48.7379 37.5841 54.7355C37.6742 56.2201 38.0086 57.6726 38.7151 59.0286C40.5583 62.5714 43.7506 63.973 47.8849 63.035C50.8271 62.3677 53.4583 61.0921 55.8394 59.3931C58.8049 57.2787 61.2354 54.7221 63.2531 51.7984C64.1719 50.4665 64.387 49.0274 64.701 47.5454C65.5528 43.5256 67.4862 40.0445 71.26 37.6781C74.5802 35.5959 78.0777 35.344 81.709 37.0591C82.8109 37.5817 83.4069 38.4392 83.875 39.404C85.0525 41.84 85.0001 44.3778 84.5379 46.9424C84.5059 47.122 84.4768 47.3015 84.5757 47.6392C84.9769 47.4248 85.4101 47.2479 85.7764 46.988C87.8784 45.4926 89.4135 43.5792 90.5881 41.4005C91.6173 39.4951 92.1987 37.4718 92.4022 35.3601C92.5534 33.8084 92.9808 33.3662 94.4752 33.3555C95.8184 33.3448 96.8389 34.1648 96.8854 35.4405C96.9145 36.2364 96.7633 37.043 96.6325 37.8336C96.4318 39.0261 96.176 40.2079 96.0888 41.438C96.9261 40.1624 97.6849 38.8305 98.6269 37.6219C99.5921 36.3838 100.618 35.143 101.837 34.1246C103.552 32.6882 105.549 33.0875 106.802 34.9018C107.582 36.0273 107.834 37.2896 107.925 38.6C108.721 37.4477 109.474 36.29 110.303 35.1805C111.32 33.8165 112.524 32.6052 114.077 31.7315C116.365 30.4452 119.005 31.5466 119.336 34.0067C119.476 35.0331 119.38 36.1051 119.249 37.1395C118.949 39.4924 118.525 41.8319 118.231 44.1849C118.103 45.1978 118.167 46.2296 118.15 47.2533C118.15 47.3605 118.161 47.4704 118.179 47.5749C118.464 49.3222 119.42 49.8903 121.104 49.0515C122.554 48.3306 123.845 47.3337 125.18 46.4225C125.764 46.0232 126.255 45.5087 126.825 45.088C127.221 44.7959 127.677 44.5788 128.131 44.3162C128.596 44.9191 128.305 45.3426 128.058 45.7606C127.043 47.4838 125.485 48.754 123.86 49.9492C122.479 50.9649 120.97 51.7984 119.179 52.0422C116.187 52.4496 114.268 51.1043 113.841 48.3252C113.501 46.1197 113.594 43.9088 113.943 41.7194C114.274 39.6425 114.745 37.587 115.123 35.5155C115.181 35.1993 115.08 34.8589 115.053 34.5293C114.684 34.6338 114.251 34.6579 113.957 34.8562C112.71 35.7058 111.829 36.8608 111.114 38.1016C108.96 41.8239 107.14 45.6722 106.299 49.8501C106.113 50.772 106.055 51.7206 106.02 52.6613C106 53.2696 105.692 53.5269 105.102 53.6367C103.674 53.902 102.308 53.3178 101.842 52.0449C101.563 51.2785 101.421 50.3941 101.526 49.5955C101.906 46.6825 102.453 43.7882 102.863 40.8779C103.043 39.5996 103.069 38.3026 103.113 37.0109C103.125 36.6357 102.95 36.2551 102.863 35.8773C102.77 35.8398 102.677 35.8022 102.584 35.7647C102.017 36.2364 101.398 36.6652 100.895 37.1904C99.2026 38.9564 98.1879 41.0789 97.275 43.2469C95.8736 46.5726 94.8764 50.0028 94.167 53.5054C94.0333 54.162 93.9984 54.8346 93.8908 55.7083L93.8792 55.7217ZM80.0286 47.5213C80.6275 45.7606 80.8048 43.9839 80.5519 42.1776C80.3891 41.0146 80.0256 39.9105 79.2843 38.943C78.8017 38.3133 78.2551 37.713 77.3015 37.8389C76.2054 37.9836 75.2227 38.2945 74.711 39.3638C74.4959 39.8113 74.0656 40.1785 73.7022 40.559C73.4143 40.8591 73.0422 41.095 72.7689 41.4058C70.8907 43.5417 69.6493 45.967 69.2248 48.687C68.9486 50.4584 68.9835 52.2379 70.0476 53.8592C70.9867 55.2875 72.5043 55.8449 74.2487 55.3867C76.9555 54.6738 78.0399 52.5648 79.3366 50.5388C77.6503 49.6973 76.2752 48.6977 75.3157 47.3042C74.0423 45.4551 73.5742 43.4881 74.554 41.3898C74.9407 40.5617 75.56 39.9453 76.6328 39.8649C77.7986 39.7765 78.2434 40.2455 77.9731 41.2933C77.3451 43.7212 78.3597 45.699 80.0315 47.5213H80.0286Z" fill="#207FBF"/>
<path d="M128.39 22.1106C128.855 21.6684 129.276 21.2075 129.765 20.8189C130.294 20.3955 130.963 20.4089 131.62 20.4893C132.617 20.6125 133.617 20.7063 134.603 20.8805C135.082 20.9663 135.361 20.8135 135.658 20.5241C136.088 20.1061 136.542 19.7121 136.992 19.3101C137.26 19.0716 137.559 18.9028 137.949 19.0555C138.298 19.1922 138.571 19.5808 138.545 19.9453C138.536 20.0659 138.472 20.1972 138.391 20.2936C138.132 20.5965 137.853 20.8832 137.545 21.2128C137.926 21.2825 138.269 21.3468 138.609 21.4058C139.429 21.5478 140.252 21.6765 141.069 21.8319C141.322 21.8801 141.479 21.8506 141.656 21.655C142.139 21.119 142.641 20.5965 143.171 20.0953C143.333 19.9426 143.589 19.8434 143.819 19.7898C144.147 19.7121 144.438 19.8166 144.618 20.1034C144.825 20.4276 144.837 20.768 144.61 21.0788C144.398 21.3709 144.145 21.6389 143.912 21.9176C143.86 21.982 143.807 22.0463 143.738 22.1293C144.607 22.2365 145.447 22.3437 146.287 22.4456C147.046 22.5367 147.805 22.6224 148.561 22.7136C148.86 22.7484 149.16 22.7966 149.459 22.8234C149.532 22.8288 149.628 22.7859 149.683 22.7377C150.872 21.7059 152.041 20.6554 153.245 19.6398C154.195 18.8385 155.14 18.0184 156.326 17.5012C156.661 17.3565 157.015 17.2574 157.388 17.3351C158.17 17.5012 158.524 18.0988 158.274 18.8224C158.056 19.4522 157.661 19.9908 157.196 20.4759C156.001 21.7166 154.783 22.9387 153.567 24.1607C153.224 24.5064 152.855 24.828 152.506 25.171C152.445 25.23 152.404 25.3425 152.416 25.4256C152.541 26.3448 152.672 27.2613 152.808 28.1805C152.925 28.9603 153.044 29.7402 153.163 30.5173C153.178 30.6138 153.198 30.7103 153.224 30.8389C153.62 30.5334 153.992 30.2467 154.367 29.9599C154.817 29.6169 155.422 29.6973 155.626 30.1448C155.8 30.5334 155.649 30.8818 155.355 31.1578C154.797 31.6884 154.213 32.1949 153.628 32.7014C153.492 32.8193 153.436 32.9131 153.477 33.098C153.71 34.2209 153.922 35.3464 154.146 36.5068C154.501 36.2549 154.823 36.0137 155.166 35.7967C155.338 35.6868 155.533 35.5742 155.733 35.5421C156.326 35.4456 156.696 35.9146 156.507 36.4827C156.353 36.9436 155.975 37.2518 155.629 37.5814C155.274 37.9191 154.922 38.2568 154.547 38.573C154.367 38.7257 154.312 38.8839 154.349 39.0929C154.466 39.7307 154.582 40.3685 154.695 41.0063C154.788 41.5235 154.916 42.0381 154.957 42.558C155.004 43.1127 154.849 43.6353 154.373 44.0265C153.983 44.3454 153.585 44.6563 153.157 44.9966C152.934 44.4071 152.721 43.855 152.509 43.303C151.523 40.7383 150.538 38.1737 149.552 35.6091C149.285 34.9177 149.029 34.2209 148.756 33.5322C148.549 33.0096 148.25 32.5299 147.77 32.1815C146.976 31.6 146.113 31.4928 145.183 31.9162C144.031 32.4415 143.019 33.1302 142.107 33.9663C140.842 35.124 139.539 36.2496 138.26 37.3965C138.179 37.4716 138.112 37.6109 138.121 37.7128C138.187 38.3988 138.266 39.0849 138.359 39.7682C138.464 40.5481 138.589 41.3279 138.702 42.1077C138.722 42.2444 138.717 42.3918 138.763 42.5204C138.903 42.901 138.749 43.1958 138.504 43.4932C138.112 43.9702 137.737 44.458 137.338 44.9672C136.33 43.311 135.335 41.6816 134.332 40.0362C133.861 40.2372 133.399 40.4328 132.934 40.6285C132.922 40.6177 132.913 40.6043 132.902 40.5936C133.166 40.2131 133.428 39.8299 133.71 39.4225C131.905 38.4819 130.117 37.552 128.308 36.6113C128.971 36.1638 129.608 35.7323 130.25 35.3089C130.306 35.2714 130.399 35.2634 130.468 35.2714C131.756 35.4242 133.041 35.5849 134.329 35.7377C134.931 35.8074 135.533 35.8556 136.135 35.9253C136.356 35.9521 136.513 35.9012 136.676 35.7511C138.199 34.3281 139.74 32.9238 141.26 31.4982C141.679 31.1069 142.069 30.6862 142.423 30.2467C143.115 29.3891 143.022 28.6146 142.214 27.8455C141.31 26.9853 140.196 26.4225 139.042 25.9214C136.891 24.9861 134.67 24.2089 132.44 23.4586C131.157 23.0271 129.867 22.6224 128.579 22.2017C128.523 22.1829 128.471 22.1588 128.384 22.124L128.39 22.1106Z" fill="#207FBF"/>
</svg>
