<svg width="24" height="24" viewBox="0 0 24 24" fill="none" xmlns="http://www.w3.org/2000/svg">
<path d="M10.8866 20.6603L10.8859 20.6596C8.30104 18.3157 6.19578 16.4033 4.73088 14.6111C3.27148 12.8256 2.5 11.2206 2.5 9.5C2.5 6.68674 4.69555 4.5 7.5 4.5C9.08885 4.5 10.6221 5.24223 11.6206 6.40564L12 6.84771L12.3794 6.40564C13.3779 5.24223 14.9112 4.5 16.5 4.5C19.3045 4.5 21.5 6.68674 21.5 9.5C21.5 11.2206 20.7285 12.8256 19.2691 14.6111C17.8042 16.4033 15.699 18.3157 13.1141 20.6596L13.1134 20.6603L12 21.6738L10.8866 20.6603Z" stroke="black"/>
</svg>
