<svg width="18" height="18" viewBox="0 0 18 18" fill="none" xmlns="http://www.w3.org/2000/svg">
<g clip-path="url(#clip0_203_1323)">
<path fill-rule="evenodd" clip-rule="evenodd" d="M17.4048 8.90472C17.4048 13.5993 13.5993 17.4047 8.90477 17.4047C4.21022 17.4047 0.40477 13.5993 0.40477 8.90472C0.40477 4.21017 4.21022 0.404724 8.90477 0.404724C13.5993 0.404724 17.4048 4.21017 17.4048 8.90472ZM12.0923 8.90472C12.0923 9.0738 12.0251 9.23595 11.9056 9.3555C11.786 9.47506 11.6238 9.54222 11.4548 9.54222H6.35477C6.18569 9.54222 6.02354 9.47506 5.90399 9.3555C5.78444 9.23595 5.71727 9.0738 5.71727 8.90472C5.71727 8.73565 5.78444 8.5735 5.90399 8.45394C6.02354 8.33439 6.18569 8.26722 6.35477 8.26722H11.4548C11.6238 8.26722 11.786 8.33439 11.9056 8.45394C12.0251 8.5735 12.0923 8.73565 12.0923 8.90472Z" fill="#207FBF"/>
</g>
<defs>
<clipPath id="clip0_203_1323">
<rect width="18" height="18" fill="white"/>
</clipPath>
</defs>
</svg>
