<svg width="24" height="24" viewBox="0 0 24 24" fill="none" xmlns="http://www.w3.org/2000/svg">
<path d="M15.2889 14.677C15.1421 14.629 14.2144 14.2108 14.7941 12.4487H14.7858C16.2969 10.8924 17.4516 8.38804 17.4516 5.9225C17.4516 2.13143 14.9307 0.144043 12.0009 0.144043C9.06916 0.144043 6.56209 2.1305 6.56209 5.9225C6.56209 8.3982 7.71039 10.9127 9.2307 12.4653C9.82332 14.0197 8.76363 14.5967 8.54209 14.6779C5.47378 15.7874 1.87378 17.8099 1.87378 19.8065V20.5551C1.87378 23.2754 7.14824 23.8939 12.0295 23.8939C16.9181 23.8939 22.1261 23.2754 22.1261 20.5551V19.8065C22.1261 17.7499 18.5085 15.7431 15.2889 14.677Z" fill="white"/>
</svg>
