<svg width="26" height="26" viewBox="0 0 26 26" fill="none" xmlns="http://www.w3.org/2000/svg">
<path d="M4.99958 21.6667C4.50125 21.6667 4.08525 21.4998 3.75158 21.1662C3.41719 20.8318 3.25 20.4154 3.25 19.9171V6.08293C3.25 5.58459 3.41719 5.16859 3.75158 4.83493C4.08525 4.50054 4.50125 4.33334 4.99958 4.33334H21.0004C21.4988 4.33334 21.9148 4.50054 22.2484 4.83493C22.5828 5.16859 22.75 5.58459 22.75 6.08293V19.9171C22.75 20.4154 22.5832 20.8314 22.2495 21.1651C21.9151 21.4995 21.4988 21.6667 21.0004 21.6667H4.99958ZM7.33308 17.5825H18.6669V16.4992H7.33308V17.5825ZM7.33308 13.5417H11.0002V8.41751H7.33308V13.5417ZM13.5839 13.5417H18.6669V12.4583H13.5828L13.5839 13.5417ZM13.5839 9.50084H18.6669V8.41751H13.5828L13.5839 9.50084Z" fill="#207FBF"/>
</svg>
