<svg width="22" height="24" viewBox="0 0 22 24" fill="none" xmlns="http://www.w3.org/2000/svg">
<g clip-path="url(#clip0_227_3067)">
<path d="M13.878 17.986C12.954 20.316 10.728 21.937 8.12005 21.954H8.11505C6.83595 21.954 5.58942 21.5507 4.55282 20.8013C3.51623 20.0519 2.74238 18.9947 2.34138 17.7801C1.94038 16.5655 1.93267 15.2553 2.31933 14.0361C2.706 12.8168 3.46735 11.7505 4.49505 10.989L4.51105 10.977L4.15605 8.78601C1.65705 10.204 -0.00195245 12.846 -0.00195245 15.876C-0.00269636 17.7038 0.612977 19.4785 1.74555 20.9132C2.87812 22.3478 4.46141 23.3586 6.23948 23.7822C8.01756 24.2057 9.88652 24.0173 11.5443 23.2473C13.202 22.4774 14.5516 21.1709 15.375 19.539L15.396 19.493L13.878 17.986Z" fill="#207FBF"/>
<path d="M16.2479 15.07C16.1757 14.9987 16.0974 14.9338 16.0139 14.876L16.0079 14.872C15.7889 14.722 15.5179 14.632 15.2259 14.632H8.89491L8.07591 9.58501H14.8339C14.9644 9.58501 15.0937 9.5593 15.2143 9.50935C15.3349 9.45939 15.4445 9.38618 15.5368 9.29388C15.6291 9.20157 15.7023 9.092 15.7523 8.9714C15.8022 8.8508 15.8279 8.72155 15.8279 8.59101C15.8279 8.46048 15.8022 8.33122 15.7523 8.21062C15.7023 8.09003 15.6291 7.98045 15.5368 7.88815C15.4445 7.79585 15.3349 7.72263 15.2143 7.67268C15.0937 7.62272 14.9644 7.59701 14.8339 7.59701H7.75191L7.64091 6.92501C7.61005 6.74228 7.5435 6.56741 7.44506 6.4104C7.34662 6.25338 7.21822 6.11729 7.06718 6.0099C6.91615 5.90251 6.74544 5.82592 6.56481 5.7845C6.38417 5.74308 6.19715 5.73765 6.01441 5.76851C5.83168 5.79937 5.65681 5.86592 5.4998 5.96436C5.34278 6.06281 5.2067 6.19121 5.09931 6.34224C4.88242 6.64727 4.79559 7.02596 4.85791 7.39501L4.85691 7.38701L6.29691 16.212C6.36184 16.5517 6.54035 16.8591 6.80312 17.0839C7.0659 17.3087 7.3973 17.4375 7.74291 17.449H14.6479L20.0569 22.859C20.1865 22.9938 20.3417 23.1014 20.5133 23.1755C20.685 23.2495 20.8697 23.2887 21.0566 23.2905C21.2436 23.2923 21.429 23.2569 21.6021 23.1862C21.7752 23.1155 21.9324 23.011 22.0647 22.8787C22.1969 22.7465 22.3014 22.5893 22.3721 22.4162C22.4428 22.2431 22.4782 22.0577 22.4764 21.8707C22.4746 21.6838 22.4354 21.4991 22.3614 21.3274C22.2873 21.1558 22.1797 21.0006 22.0449 20.871L16.2479 15.07ZM8.34491 2.69101C8.34491 3.40484 8.06135 4.08944 7.55659 4.59419C7.05184 5.09894 6.36724 5.38251 5.65341 5.38251C4.93958 5.38251 4.25499 5.09894 3.75024 4.59419C3.24548 4.08944 2.96191 3.40484 2.96191 2.69101C2.96191 1.97718 3.24548 1.29259 3.75024 0.787834C4.25499 0.28308 4.93958 -0.000488281 5.65341 -0.000488281C6.36724 -0.000488281 7.05184 0.28308 7.55659 0.787834C8.06135 1.29259 8.34491 1.97718 8.34491 2.69101Z" fill="#207FBF"/>
</g>
<defs>
<clipPath id="clip0_227_3067">
<rect width="22" height="24" fill="white"/>
</clipPath>
</defs>
</svg>
