<svg width="12" height="19" viewBox="0 0 12 19" fill="none" xmlns="http://www.w3.org/2000/svg">
<g clip-path="url(#clip0_203_1025)">
<path d="M7.79967 1.78125C7.79967 1.30883 7.61003 0.855765 7.27246 0.521716C6.9349 0.187667 6.47706 0 5.99967 0C5.52228 0 5.06445 0.187667 4.72688 0.521716C4.38932 0.855765 4.19967 1.30883 4.19967 1.78125C4.19967 2.25367 4.38932 2.70673 4.72688 3.04078C5.06445 3.37483 5.52228 3.5625 5.99967 3.5625C6.47706 3.5625 6.9349 3.37483 7.27246 3.04078C7.61003 2.70673 7.79967 2.25367 7.79967 1.78125ZM6.29967 13.0625V17.8125C6.29967 18.4693 6.83592 19 7.49967 19C8.16342 19 8.69967 18.4693 8.69967 17.8125V9.5334L9.77217 11.2998C10.1134 11.8602 10.8522 12.042 11.4184 11.7043C11.9847 11.3666 12.1684 10.6355 11.8272 10.0752L9.64092 6.47559C8.98842 5.40312 7.81842 4.74629 6.55467 4.74629H5.44092C4.17717 4.74629 3.00717 5.40312 2.35467 6.47559L0.168424 10.0752C-0.172826 10.6355 0.0109234 11.3666 0.577173 11.7043C1.14342 12.042 1.88217 11.8602 2.22342 11.2998L3.29967 9.5334V17.8125C3.29967 18.4693 3.83592 19 4.49967 19C5.16342 19 5.69967 18.4693 5.69967 17.8125V13.0625H6.29967Z" fill="black"/>
</g>
<defs>
<clipPath id="clip0_203_1025">
<rect width="12" height="19" fill="white" transform="matrix(-1 0 0 1 12 0)"/>
</clipPath>
</defs>
</svg>
