<svg width="17" height="18" viewBox="0 0 17 18" fill="none" xmlns="http://www.w3.org/2000/svg">
<g clip-path="url(#clip0_203_1326)">
<path d="M17 9C17 11.2543 16.1045 13.4163 14.5104 15.0104C12.9163 16.6045 10.7543 17.5 8.5 17.5C6.24566 17.5 4.08365 16.6045 2.48959 15.0104C0.895533 13.4163 0 11.2543 0 9C0 6.74566 0.895533 4.58365 2.48959 2.98959C4.08365 1.39553 6.24566 0.5 8.5 0.5C10.7543 0.5 12.9163 1.39553 14.5104 2.98959C16.1045 4.58365 17 6.74566 17 9ZM9.03125 5.28125C9.03125 5.14035 8.97528 5.00523 8.87565 4.9056C8.77602 4.80597 8.6409 4.75 8.5 4.75C8.3591 4.75 8.22398 4.80597 8.12435 4.9056C8.02472 5.00523 7.96875 5.14035 7.96875 5.28125V8.46875H4.78125C4.64035 8.46875 4.50523 8.52472 4.4056 8.62435C4.30597 8.72398 4.25 8.8591 4.25 9C4.25 9.1409 4.30597 9.27602 4.4056 9.37565C4.50523 9.47528 4.64035 9.53125 4.78125 9.53125H7.96875V12.7188C7.96875 12.8596 8.02472 12.9948 8.12435 13.0944C8.22398 13.194 8.3591 13.25 8.5 13.25C8.6409 13.25 8.77602 13.194 8.87565 13.0944C8.97528 12.9948 9.03125 12.8596 9.03125 12.7188V9.53125H12.2188C12.3596 9.53125 12.4948 9.47528 12.5944 9.37565C12.694 9.27602 12.75 9.1409 12.75 9C12.75 8.8591 12.694 8.72398 12.5944 8.62435C12.4948 8.52472 12.3596 8.46875 12.2188 8.46875H9.03125V5.28125Z" fill="#207FBF"/>
</g>
<defs>
<clipPath id="clip0_203_1326">
<rect width="17" height="17" fill="white" transform="translate(0 0.5)"/>
</clipPath>
</defs>
</svg>
