<svg width="24" height="24" viewBox="0 0 24 24" fill="none" xmlns="http://www.w3.org/2000/svg">
<path d="M7 9V3C7 2.71667 7.096 2.47933 7.288 2.288C7.48 2.09667 7.71733 2.00067 8 2C8.28333 2 8.521 2.096 8.713 2.288C8.905 2.48 9.00067 2.71733 9 3V9H10V3C10 2.71667 10.096 2.47933 10.288 2.288C10.48 2.09667 10.7173 2.00067 11 2C11.2833 2 11.521 2.096 11.713 2.288C11.905 2.48 12.0007 2.71733 12 3V9C12 9.93333 11.7127 10.75 11.138 11.45C10.5633 12.15 9.85067 12.6167 9 12.85V21C9 21.2833 8.904 21.521 8.712 21.713C8.52 21.905 8.28267 22.0007 8 22C7.71667 22 7.47933 21.904 7.288 21.712C7.09667 21.52 7.00067 21.2827 7 21V12.85C6.15 12.6167 5.43767 12.15 4.863 11.45C4.28833 10.75 4.00067 9.93333 4 9V3C4 2.71667 4.096 2.47933 4.288 2.288C4.48 2.09667 4.71733 2.00067 5 2C5.28333 2 5.521 2.096 5.713 2.288C5.905 2.48 6.00067 2.71733 6 3V9H7ZM17 14H15C14.7167 14 14.4793 13.904 14.288 13.712C14.0967 13.52 14.0007 13.2827 14 13V7C14 5.83333 14.4293 4.70833 15.288 3.625C16.1467 2.54167 17.034 2 17.95 2C18.25 2 18.5 2.11667 18.7 2.35C18.9 2.58333 19 2.85833 19 3.175V21C19 21.2833 18.904 21.521 18.712 21.713C18.52 21.905 18.2827 22.0007 18 22C17.7167 22 17.4793 21.904 17.288 21.712C17.0967 21.52 17.0007 21.2827 17 21V14Z" fill="#207FBF"/>
</svg>
