<svg width="19" height="21" viewBox="0 0 19 21" fill="none" xmlns="http://www.w3.org/2000/svg">
<path d="M14.5577 17.201H6.57271C6.46317 17.201 6.35811 17.2436 6.28065 17.3193C6.20318 17.395 6.15967 17.4978 6.15967 17.6049V19.1827C6.15967 19.4505 6.26846 19.7073 6.46211 19.8966C6.65576 20.0859 6.91841 20.1923 7.19228 20.1923H14.5577C14.6672 20.1923 14.7723 20.1498 14.8497 20.074C14.9272 19.9983 14.9707 19.8956 14.9707 19.7885V17.6049C14.9707 17.4978 14.9272 17.395 14.8497 17.3193C14.7723 17.2436 14.6672 17.201 14.5577 17.201Z" fill="#D0CFCE"/>
<path d="M15.1083 14.8082H6.02217C5.91263 14.8082 5.80757 14.8508 5.73011 14.9265C5.65265 15.0022 5.60913 15.105 5.60913 15.2121V16.588C5.60913 16.9093 5.73968 17.2175 5.97206 17.4447C6.20445 17.6719 6.51962 17.7995 6.84826 17.7995H14.2822C14.6109 17.7995 14.926 17.6719 15.1584 17.4447C15.3908 17.2175 15.5213 16.9093 15.5213 16.588V15.2121C15.5213 15.105 15.4778 15.0022 15.4004 14.9265C15.3229 14.8508 15.2178 14.8082 15.1083 14.8082Z" fill="#9B9B9A"/>
<path d="M8.22664 13.4012L4.41136 1.51725C4.39509 1.46665 4.36879 1.41969 4.33395 1.37903C4.29911 1.33837 4.25643 1.30483 4.20833 1.2803C4.16023 1.25577 4.10767 1.24075 4.05363 1.23609C3.9996 1.23143 3.94515 1.23722 3.8934 1.25313L1.76293 1.90696C1.71114 1.92283 1.66306 1.94851 1.62143 1.98256C1.57981 2.0166 1.54545 2.05833 1.52032 2.10536C1.4952 2.15239 1.4798 2.2038 1.475 2.25665C1.47021 2.30951 1.47611 2.36276 1.49238 2.41338L5.30766 14.297C5.32389 14.3476 5.35016 14.3946 5.38498 14.4353C5.4198 14.476 5.46248 14.5096 5.51058 14.5342C5.55868 14.5587 5.61126 14.5738 5.66532 14.5785C5.71938 14.5832 5.77385 14.5774 5.82562 14.5615L7.9561 13.9072C8.06059 13.8752 8.14779 13.8039 8.19852 13.709C8.24925 13.6141 8.25937 13.5034 8.22664 13.4012Z" fill="#61B2E4"/>
<path d="M16.0715 13.4158V15.0029C16.0715 15.225 15.8856 15.4067 15.6584 15.4067H5.47278C5.24148 15.4067 5.05974 15.225 5.05974 15.0029V13.5248L1.49104 2.41499C1.42496 2.20095 1.54474 1.9748 1.76365 1.90615L3.89496 1.25192C4.10974 1.1873 4.34104 1.30442 4.41126 1.51845L8.10387 13.0119H15.6584C15.8856 13.0119 16.0715 13.1936 16.0715 13.4158Z" fill="black"/>
<path d="M6.40088 5.80852L5.02255 1.51725C5.00628 1.46665 4.97998 1.41969 4.94514 1.37903C4.9103 1.33837 4.86762 1.30483 4.81952 1.2803C4.77142 1.25577 4.71886 1.24075 4.66482 1.23609C4.61079 1.23143 4.55634 1.23722 4.50459 1.25313L4.06346 1.38842C4.01168 1.40429 3.9636 1.42998 3.92197 1.46402C3.88034 1.49806 3.84598 1.53979 3.82086 1.58682C3.79573 1.63385 3.78033 1.68526 3.77554 1.73811C3.77075 1.79097 3.77665 1.84423 3.79292 1.89485L5.17083 6.18571C5.20361 6.28788 5.27654 6.37313 5.37359 6.42273C5.47064 6.47234 5.58387 6.48223 5.68838 6.45023L6.12992 6.31454C6.23441 6.28249 6.32161 6.21118 6.37234 6.11629C6.42307 6.0214 6.4336 5.9107 6.40088 5.80852Z" fill="#92D3F5"/>
<path d="M13.2295 9.42375H6.178C6.12609 9.42375 6.07469 9.43375 6.02673 9.45317C5.97877 9.47259 5.9352 9.50106 5.89849 9.53695C5.86178 9.57284 5.83267 9.61544 5.8128 9.66233C5.79294 9.70922 5.78271 9.75948 5.78271 9.81023V10.832C5.78271 11.0456 5.9595 11.2184 6.178 11.2184H13.2295C13.3342 11.2184 13.4347 11.1778 13.5088 11.1054C13.583 11.033 13.6246 10.9348 13.6248 10.8324V9.81023C13.6248 9.75948 13.6145 9.70922 13.5947 9.66233C13.5748 9.61544 13.5457 9.57284 13.509 9.53695C13.4723 9.50106 13.4287 9.47259 13.3807 9.45317C13.3328 9.43375 13.2814 9.42375 13.2295 9.42375Z" fill="black"/>
<path d="M14.9687 17.5956V19.7885C14.9687 20.0106 14.7869 20.1923 14.5556 20.1923H7.19106C6.91719 20.1923 6.65454 20.0859 6.46089 19.8966C6.26724 19.7072 6.15845 19.4504 6.15845 19.1827V17.5956C6.35671 17.7208 6.59214 17.7975 6.84823 17.7975H14.283C14.535 17.7975 14.7704 17.7208 14.9687 17.5956Z" fill="black"/>
<path d="M15.522 15.4067V16.586C15.522 17.01 15.299 17.3775 14.9685 17.5956C14.7703 17.7208 14.5348 17.7975 14.2829 17.7975H6.8481C6.59202 17.7975 6.35658 17.7208 6.15832 17.5956C5.82789 17.3775 5.60897 17.006 5.60897 16.586V15.4067H15.522ZM6.12941 6.31615L5.96832 6.36461L5.68745 6.44942C5.63592 6.46534 5.58169 6.47118 5.52785 6.46661C5.47401 6.46203 5.42162 6.44713 5.37368 6.42275C5.32573 6.39837 5.28316 6.365 5.24841 6.32453C5.21366 6.28407 5.18741 6.23731 5.17115 6.18692L3.79158 1.89403C3.72549 1.68403 3.84528 1.45384 4.06419 1.38922L4.26658 1.32461H4.27071L4.50615 1.25192C4.72093 1.1873 4.95636 1.30442 5.02245 1.51845L6.40202 5.8073C6.4681 6.02134 6.34832 6.24749 6.12941 6.31615Z" fill="black"/>
</svg>
