<svg width="29" height="29" viewBox="0 0 29 29" fill="none" xmlns="http://www.w3.org/2000/svg">
<path fill-rule="evenodd" clip-rule="evenodd" d="M3.625 3.625H22.3542V6.64583H21.1458V4.83333H4.83333V18.7292H17.7546V19.9375H3.625V3.625ZM21.75 11.4792C22.2307 11.4792 22.6917 11.2882 23.0316 10.9483C23.3715 10.6084 23.5625 10.1474 23.5625 9.66667C23.5625 9.18596 23.3715 8.72495 23.0316 8.38504C22.6917 8.04513 22.2307 7.85417 21.75 7.85417C21.2693 7.85417 20.8083 8.04513 20.4684 8.38504C20.1285 8.72495 19.9375 9.18596 19.9375 9.66667C19.9375 10.1474 20.1285 10.6084 20.4684 10.9483C20.8083 11.2882 21.2693 11.4792 21.75 11.4792ZM22.9771 12.6935C23.7619 12.6935 24.383 13.0464 24.7896 13.5913C25.1696 14.1019 25.3303 14.7332 25.3665 15.3162C25.4021 15.9143 25.3206 16.5135 25.1267 17.0804C24.9454 17.606 24.6391 18.1498 24.1667 18.5225V24.4688C24.1671 24.6964 24.0818 24.916 23.9278 25.0836C23.7737 25.2513 23.5622 25.3548 23.3353 25.3736C23.1084 25.3925 22.8827 25.3252 22.7031 25.1851C22.5236 25.0451 22.4033 24.8426 22.3663 24.618L21.5869 19.9375H21.4068L20.526 24.6355C20.4841 24.8572 20.3611 25.0554 20.1809 25.1912C20.0007 25.327 19.7763 25.3907 19.5517 25.3699C19.327 25.349 19.1182 25.2451 18.9661 25.0785C18.814 24.9118 18.7295 24.6944 18.7292 24.4688V15.8491C18.6083 16.0331 18.4891 16.2182 18.3715 16.4043L18.3244 16.4786L18.3123 16.498L18.3093 16.5034C18.2278 16.6342 18.1144 16.742 17.9798 16.8167C17.8451 16.8915 17.6936 16.9306 17.5396 16.9306H14.5187C14.2784 16.9306 14.0479 16.8351 13.8779 16.6651C13.708 16.4952 13.6125 16.2647 13.6125 16.0243C13.6125 15.784 13.708 15.5535 13.8779 15.3835C14.0479 15.2135 14.2784 15.1181 14.5187 15.1181H17.0423C17.1891 14.8909 17.3825 14.5961 17.5855 14.3C17.7969 13.9913 18.0301 13.6644 18.238 13.4083C18.3389 13.2832 18.4519 13.1527 18.5654 13.0458C18.621 12.9932 18.6984 12.9249 18.7926 12.8645C18.9589 12.7553 19.1531 12.6962 19.3521 12.6941L22.9771 12.6935Z" fill="#207FBF"/>
</svg>
