<svg width="28" height="29" viewBox="0 0 28 29" fill="none" xmlns="http://www.w3.org/2000/svg">
<path d="M3 14.5233C3 12.9984 3.28785 11.5654 3.86356 10.2242C4.43927 8.88306 5.21991 7.71642 6.20548 6.72432C7.19178 5.73222 8.3516 4.947 9.68493 4.36864C11.0183 3.79028 12.4429 3.50073 13.9589 3.5C16.4429 3.5 18.6438 4.23048 20.5616 5.69144C22.4795 7.1524 23.7763 9.02158 24.4521 11.299C24.5434 11.5562 24.4933 11.7951 24.3019 12.0155C24.1105 12.236 23.8683 12.3462 23.5753 12.3462C23.2648 12.3462 22.9774 12.2635 22.7129 12.0982C22.4484 11.9328 22.261 11.7032 22.1507 11.4092C21.7306 10.2702 21.0961 9.25969 20.2471 8.37782C19.3982 7.49596 18.398 6.82537 17.2466 6.36607V6.807C17.2466 7.41328 17.0321 7.93248 16.6033 8.36459C16.1744 8.79671 15.6583 9.0124 15.0548 9.01166H12.863V11.2163C12.863 11.5287 12.7578 11.7906 12.5474 12.0023C12.337 12.2139 12.0769 12.3194 11.7671 12.3187H9.57534V14.5233H10.6712C10.9817 14.5233 11.2422 14.6292 11.4526 14.8408C11.663 15.0524 11.7679 15.3141 11.7671 15.6257V17.8303H10.6712L5.41096 12.5391C5.35616 12.8698 5.30612 13.2005 5.26082 13.5312C5.21553 13.8619 5.19251 14.1926 5.19178 14.5233C5.19178 16.7647 5.92712 18.7214 7.39781 20.3933C8.86849 22.0651 10.7176 23.0297 12.9452 23.2869C13.2374 23.3236 13.4796 23.4478 13.6718 23.6595C13.8639 23.8711 13.9596 24.1327 13.9589 24.4443C13.9589 24.7567 13.8537 25.0186 13.6433 25.2303C13.4329 25.4419 13.1819 25.529 12.8904 25.4915C10.0959 25.216 7.74886 24.0401 5.84931 21.9641C3.94977 19.888 3 17.4078 3 14.5233ZM23.1644 24.2239L20.4247 21.468C20.0411 21.6885 19.6301 21.8722 19.1918 22.0192C18.7534 22.1662 18.2877 22.2397 17.7945 22.2397C16.4247 22.2397 15.2605 21.7576 14.3019 20.7934C13.3434 19.8292 12.8637 18.6578 12.863 17.2792C12.863 15.9012 13.3426 14.7302 14.3019 13.766C15.2612 12.8019 16.4254 12.3194 17.7945 12.3187C19.1644 12.3187 20.3289 12.8011 21.2882 13.766C22.2475 14.7309 22.7268 15.902 22.726 17.2792C22.726 17.7752 22.653 18.2437 22.5068 18.6846C22.3607 19.1256 22.1781 19.5389 21.9589 19.9248L24.6986 22.6806C24.8995 22.8827 25 23.1399 25 23.4522C25 23.7646 24.8995 24.0218 24.6986 24.2239C24.4977 24.426 24.242 24.527 23.9315 24.527C23.621 24.527 23.3653 24.426 23.1644 24.2239ZM17.7945 20.035C18.5616 20.035 19.21 19.7686 19.7397 19.2358C20.2694 18.703 20.5342 18.0508 20.5342 17.2792C20.5342 16.5075 20.2694 15.8553 19.7397 15.3225C19.21 14.7897 18.5616 14.5233 17.7945 14.5233C17.0274 14.5233 16.379 14.7897 15.8493 15.3225C15.3196 15.8553 15.0548 16.5075 15.0548 17.2792C15.0548 18.0508 15.3196 18.703 15.8493 19.2358C16.379 19.7686 17.0274 20.035 17.7945 20.035Z" fill="#9B9B9A"/>
</svg>
