<svg width="35" height="34" viewBox="0 0 35 34" fill="none" xmlns="http://www.w3.org/2000/svg">
<path d="M17.6668 8.5C16.616 8.5 15.5889 8.81157 14.7153 9.39532C13.8416 9.97906 13.1607 10.8088 12.7586 11.7795C12.3565 12.7502 12.2513 13.8184 12.4563 14.8489C12.6613 15.8794 13.1673 16.826 13.9102 17.569C14.6532 18.312 15.5998 18.8179 16.6303 19.0229C17.6609 19.2279 18.729 19.1227 19.6998 18.7206C20.6705 18.3185 21.5002 17.6376 22.0839 16.764C22.6677 15.8903 22.9793 14.8632 22.9793 13.8125C22.9793 12.4035 22.4195 11.0523 21.4233 10.056C20.427 9.05971 19.0757 8.5 17.6668 8.5Z" fill="white"/>
<path d="M17.6668 2.125C14.7248 2.125 11.8488 2.9974 9.40265 4.63189C6.95647 6.26638 5.0499 8.58953 3.92405 11.3076C2.79819 14.0256 2.50362 17.0165 3.07757 19.902C3.65153 22.7874 5.06823 25.4379 7.14854 27.5182C9.22885 29.5985 11.8793 31.0152 14.7648 31.5892C17.6503 32.1631 20.6411 31.8686 23.3592 30.7427C26.0772 29.6169 28.4004 27.7103 30.0349 25.2641C31.6694 22.8179 32.5418 19.942 32.5418 17C32.5373 13.0563 30.9686 9.27538 28.18 6.48676C25.3914 3.69813 21.6105 2.1295 17.6668 2.125ZM26.1593 26.4839C26.1381 25.09 25.5702 23.7603 24.5778 22.7813C23.5855 21.8023 22.2482 21.2523 20.8543 21.25H14.4793C13.0854 21.2526 11.7485 21.8027 10.7563 22.7817C9.76424 23.7607 9.19643 25.0902 9.17525 26.4839C7.24848 24.7634 5.88972 22.4983 5.27889 19.9885C4.66806 17.4786 4.83399 14.8424 5.75468 12.429C6.67538 10.0155 8.30743 7.93865 10.4347 6.47335C12.562 5.00806 15.0842 4.22346 17.6673 4.22346C20.2504 4.22346 22.7726 5.00806 24.8999 6.47335C27.0271 7.93865 28.6592 10.0155 29.5799 12.429C30.5006 14.8424 30.6665 17.4786 30.0557 19.9885C29.4449 22.4983 28.0861 24.7634 26.1593 26.4839Z" fill="white"/>
</svg>
