<svg width="28" height="29" viewBox="0 0 28 29" fill="none" xmlns="http://www.w3.org/2000/svg">
<path d="M13.5 6.5C12.61 6.5 11.74 6.76392 10.9999 7.25839C10.2599 7.75285 9.68314 8.45566 9.34254 9.27792C9.00195 10.1002 8.91283 11.005 9.08647 11.8779C9.2601 12.7508 9.68869 13.5526 10.318 14.182C10.9474 14.8113 11.7492 15.2399 12.6221 15.4135C13.495 15.5872 14.3998 15.498 15.2221 15.1575C16.0443 14.8169 16.7471 14.2401 17.2416 13.5001C17.7361 12.76 18 11.89 18 11C18 9.80652 17.5259 8.66193 16.682 7.81802C15.8381 6.97411 14.6935 6.5 13.5 6.5Z" fill="#9B9B9A"/>
<path d="M13.5 1.5C11.0277 1.5 8.61099 2.23311 6.55538 3.60663C4.49976 4.98015 2.89761 6.93238 1.95151 9.21646C1.00542 11.5005 0.757874 14.0139 1.24019 16.4386C1.7225 18.8634 2.91301 21.0907 4.66117 22.8388C6.40933 24.587 8.63661 25.7775 11.0614 26.2598C13.4861 26.7421 15.9995 26.4946 18.2835 25.5485C20.5676 24.6024 22.5199 23.0002 23.8934 20.9446C25.2669 18.889 26 16.4723 26 14C25.9962 10.686 24.678 7.50873 22.3347 5.16534C19.9913 2.82196 16.814 1.50378 13.5 1.5ZM20.6366 21.9696C20.6188 20.7984 20.1415 19.6809 19.3076 18.8582C18.4737 18.0355 17.35 17.5734 16.1786 17.5714H10.8214C9.65017 17.5736 8.52664 18.0359 7.69294 18.8586C6.85924 19.6812 6.38208 20.7985 6.36429 21.9696C4.74515 20.5239 3.60334 18.6204 3.09004 16.5113C2.57674 14.4022 2.71617 12.1869 3.48986 10.1588C4.26356 8.13069 5.63502 6.38542 7.42266 5.15408C9.21029 3.92274 11.3298 3.26342 13.5004 3.26342C15.6711 3.26342 17.7906 3.92274 19.5782 5.15408C21.3659 6.38542 22.7373 8.13069 23.511 10.1588C24.2847 12.1869 24.4242 14.4022 23.9109 16.5113C23.3976 18.6204 22.2557 20.5239 20.6366 21.9696Z" fill="#9B9B9A"/>
</svg>
