<svg width="24" height="24" viewBox="0 0 24 24" fill="none" xmlns="http://www.w3.org/2000/svg">
<path d="M13.4136 19.412C13.5997 19.2267 13.7473 19.0065 13.8481 18.764C13.9488 18.5215 14.0007 18.2615 14.0007 17.999C14.0007 17.7364 13.9488 17.4764 13.8481 17.2339C13.7473 16.9914 13.5997 16.7712 13.4136 16.586C13.2284 16.3995 13.0082 16.2514 12.7656 16.1503C12.523 16.0492 12.2628 15.9971 12 15.9969C11.7372 15.9967 11.4769 16.0485 11.2342 16.1492C10.9915 16.25 10.771 16.3977 10.5856 16.584C10.3946 16.7685 10.2422 16.9892 10.1374 17.2332C10.0326 17.4772 9.97741 17.7396 9.9751 18.0052C9.97279 18.2707 10.0234 18.5341 10.124 18.7799C10.2245 19.0257 10.373 19.249 10.5608 19.4368C10.7486 19.6245 10.9719 19.7731 11.2177 19.8736C11.4635 19.9742 11.7268 20.0248 11.9924 20.0225C12.258 20.0202 12.5204 19.965 12.7644 19.8602C13.0084 19.7554 13.2291 19.603 13.4136 19.412ZM20.4846 11.515C20.2219 11.5155 19.9617 11.4639 19.719 11.3634C19.4763 11.2628 19.2559 11.1151 19.0706 10.929C15.1716 7.02997 8.8276 7.03097 4.9276 10.929C4.55245 11.3041 4.04364 11.5149 3.5131 11.5149C2.98256 11.5149 2.47375 11.3041 2.0986 10.929C1.72345 10.5538 1.5127 10.045 1.5127 9.51447C1.5127 8.98393 1.72345 8.47512 2.0986 8.09997C7.5576 2.64197 16.4396 2.64197 21.8976 8.09997C22.1775 8.37956 22.3682 8.73588 22.4456 9.12387C22.5229 9.51185 22.4835 9.91406 22.3322 10.2796C22.181 10.6452 21.9247 10.9577 21.5958 11.1776C21.2669 11.3975 20.8802 11.5149 20.4846 11.515ZM7.7566 15.757C7.3611 15.7569 6.9745 15.6395 6.64568 15.4198C6.31686 15.2 6.06058 14.8877 5.90924 14.5223C5.7579 14.1569 5.7183 13.7548 5.79543 13.3669C5.87257 12.979 6.06298 12.6227 6.3426 12.343C9.4606 9.22397 14.5366 9.22397 17.6556 12.343C18.0308 12.7181 18.2415 13.2269 18.2415 13.7575C18.2415 14.288 18.0308 14.7968 17.6556 15.172C17.2805 15.5471 16.7716 15.7579 16.2411 15.7579C15.7106 15.7579 15.2017 15.5471 14.8266 15.172C14.0758 14.423 13.0586 14.0024 11.9981 14.0024C10.9376 14.0024 9.9204 14.423 9.1696 15.172C8.98429 15.3578 8.76404 15.5052 8.52154 15.6056C8.27904 15.706 8.01907 15.7575 7.7566 15.757Z" fill="#207FBF"/>
</svg>
