<svg width="28" height="29" viewBox="0 0 28 29" fill="none" xmlns="http://www.w3.org/2000/svg">
<path d="M8.96 17.1889V9.61111H4.4C3.08 9.61111 2 10.7111 2 12.0556V19.3889C2 20.7333 3.08 21.8333 4.4 21.8333H5.6V25.5L9.2 21.8333H15.2C16.52 21.8333 17.6 20.7333 17.6 19.3889V17.1644C17.5211 17.1817 17.4407 17.1903 17.36 17.1901H8.96V17.1889ZM23.6 3.5H12.8C11.48 3.5 10.4 4.6 10.4 5.94444V15.7222H18.8L22.4 19.3889V15.7222H23.6C24.92 15.7222 26 14.6234 26 13.2778V5.94444C26 4.6 24.92 3.5 23.6 3.5Z" fill="#9B9B9A"/>
</svg>
