<svg width="29" height="29" viewBox="0 0 29 29" fill="none" xmlns="http://www.w3.org/2000/svg">
<path d="M4.5 5.6875C4.5 5.03066 5.03066 4.5 5.6875 4.5H22.3125C22.9693 4.5 23.5 5.03066 23.5 5.6875C23.5 6.34434 22.9693 6.875 22.3125 6.875V21.125C22.9693 21.125 23.5 21.6557 23.5 22.3125C23.5 22.9693 22.9693 23.5 22.3125 23.5H15.7812V21.7188C15.7812 20.7354 14.9834 19.9375 14 19.9375C13.0166 19.9375 12.2188 20.7354 12.2188 21.7188V23.5H5.6875C5.03066 23.5 4.5 22.9693 4.5 22.3125C4.5 21.6557 5.03066 21.125 5.6875 21.125V6.875C5.03066 6.875 4.5 6.34434 4.5 5.6875ZM8.0625 8.65625V9.84375C8.0625 10.1703 8.32969 10.4375 8.65625 10.4375H9.84375C10.1703 10.4375 10.4375 10.1703 10.4375 9.84375V8.65625C10.4375 8.32969 10.1703 8.0625 9.84375 8.0625H8.65625C8.32969 8.0625 8.0625 8.32969 8.0625 8.65625ZM13.4062 8.0625C13.0797 8.0625 12.8125 8.32969 12.8125 8.65625V9.84375C12.8125 10.1703 13.0797 10.4375 13.4062 10.4375H14.5938C14.9203 10.4375 15.1875 10.1703 15.1875 9.84375V8.65625C15.1875 8.32969 14.9203 8.0625 14.5938 8.0625H13.4062ZM17.5625 8.65625V9.84375C17.5625 10.1703 17.8297 10.4375 18.1562 10.4375H19.3438C19.6703 10.4375 19.9375 10.1703 19.9375 9.84375V8.65625C19.9375 8.32969 19.6703 8.0625 19.3438 8.0625H18.1562C17.8297 8.0625 17.5625 8.32969 17.5625 8.65625ZM8.65625 11.625C8.32969 11.625 8.0625 11.8922 8.0625 12.2188V13.4062C8.0625 13.7328 8.32969 14 8.65625 14H9.84375C10.1703 14 10.4375 13.7328 10.4375 13.4062V12.2188C10.4375 11.8922 10.1703 11.625 9.84375 11.625H8.65625ZM12.8125 12.2188V13.4062C12.8125 13.7328 13.0797 14 13.4062 14H14.5938C14.9203 14 15.1875 13.7328 15.1875 13.4062V12.2188C15.1875 11.8922 14.9203 11.625 14.5938 11.625H13.4062C13.0797 11.625 12.8125 11.8922 12.8125 12.2188ZM18.1562 11.625C17.8297 11.625 17.5625 11.8922 17.5625 12.2188V13.4062C17.5625 13.7328 17.8297 14 18.1562 14H19.3438C19.6703 14 19.9375 13.7328 19.9375 13.4062V12.2188C19.9375 11.8922 19.6703 11.625 19.3438 11.625H18.1562ZM16.6719 18.75C17.1654 18.75 17.5736 18.3455 17.4512 17.8668C17.0578 16.3268 15.6625 15.1875 14 15.1875C12.3375 15.1875 10.9385 16.3268 10.5488 17.8668C10.4264 18.3418 10.8383 18.75 11.3281 18.75H16.6719Z" fill="#9B9B9A"/>
</svg>
